# xmcd CD database file
#
# Track frame offsets:
#	150
#	12415
#	22417
#	32417
#	43677
#	55290
#	65598
#	78909
#	89889
#	100900
#	112667
#	123772
#
# Disc length: 1819 seconds
#
# Revision: 0
# Processed by: cddbd v1.5.2PL0 Copyright (c) Steve Scherf et al.
# Submitted via: CDex 1.50beta10
#
DISCID=9907190c
DTITLE=Various Artist - 50's #1 Country Hits
DYEAR=2006
DGENRE=Country
TTITLE0=Hank Williams - Your Cheatin' Heart
TTITLE1=Johnny Cash - Ballad of a Teenage Queen
TTITLE2=Jim Reeves - He'll Have to Go (Live)
TTITLE3=Ray Price - Crazy Arms
TTITLE4=Eddy Arnold - I Really Don't Want to Know
TTITLE5=Faron Young - Live Fast, Love Hard, Die Young
TTITLE6=Hank Thompson - The Wild Side of Life
TTITLE7=Webb Pierce - More and More
TTITLE8=Carl Smith - Hey Joe!
TTITLE9=Don Gibson - Oh, Lonesome Me
TTITLE10=Marty Robbins - Singing the Blues
TTITLE11=Hank Snow - I'm Movin' On
EXTD=YEAR: 2006
EXTT0=
EXTT1=
EXTT2=
EXTT3=
EXTT4=
EXTT5=
EXTT6=
EXTT7=
EXTT8=
EXTT9=
EXTT10=
EXTT11=
PLAYORDER=
